<svg width="512" height="387" viewBox="0 0 512 387" fill="none" xmlns="http://www.w3.org/2000/svg">
<path fill-rule="evenodd" clip-rule="evenodd" d="M178.32 385.473C169.031 381.724 164.54 371.154 168.29 361.865L309.761 11.354C313.51 2.06489 324.079 -2.4261 333.369 1.32312C342.658 5.07233 347.149 15.642 343.4 24.9311L201.928 375.442C198.179 384.731 187.61 389.222 178.32 385.473ZM0.0925511 192.295C0.290116 187.932 2.0547 183.627 5.3863 180.295L123.39 62.2911C130.474 55.2079 141.958 55.2079 149.041 62.2912C156.124 69.3744 156.124 80.8586 149.041 87.9418L43.1097 193.873L148.915 299.678C155.929 306.692 155.929 318.063 148.915 325.077C141.901 332.091 130.53 332.091 123.516 325.077L5.26021 206.821C1.28824 202.849 -0.434308 197.479 0.0925511 192.295ZM506.614 180.295C509.945 183.627 511.71 187.932 511.907 192.294C512.434 197.479 510.712 202.849 506.74 206.821L388.484 325.077C381.47 332.091 370.099 332.091 363.085 325.077C356.071 318.063 356.071 306.692 363.085 299.678L468.89 193.873L362.959 87.9418C355.876 80.8586 355.876 69.3744 362.959 62.2912C370.042 55.2079 381.526 55.2079 388.61 62.2911L506.614 180.295Z" fill="url(#paint0_linear_73_928)"/>
<defs>
<linearGradient id="paint0_linear_73_928" x1="547.76" y1="47.6763" x2="-29.0204" y2="321.815" gradientUnits="userSpaceOnUse">
<stop offset="0.326389" stop-color="#4376F1"/>
<stop offset="1" stop-color="#4D7EF5" stop-opacity="0.16"/>
</linearGradient>
</defs>
</svg>
